<svg version="1.1" xmlns="http://www.w3.org/2000/svg" xmlns:xlink="http://www.w3.org/1999/xlink" width="101" height="103" viewBox="0,0,101,103"><defs><linearGradient x1="199.375" y1="143.13299" x2="300.375" y2="143.13299" gradientUnits="userSpaceOnUse" id="color-1"><stop offset="0" stop-color="#8dc63f"/><stop offset="1" stop-color="#006838"/></linearGradient><radialGradient cx="249.875" cy="143.13299" r="41.30462" gradientUnits="userSpaceOnUse" id="color-2"><stop offset="0" stop-color="#d7df23"/><stop offset="1" stop-color="#009444"/></radialGradient></defs><g transform="translate(-199.375,-91.632)"><g data-paper-data="{&quot;isPaintingLayer&quot;:true}" fill-rule="nonzero" stroke="none" stroke-width="1" stroke-linecap="butt" stroke-linejoin="miter" stroke-miterlimit="10" stroke-dasharray="" stroke-dashoffset="0" style="mix-blend-mode: normal"><path d="M300.375,143.132c0,28.39573 -22.6532,51.5 -50.5,51.5c-27.84558,0 -50.5,-23.10427 -50.5,-51.5c0,-28.39698 22.6532,-51.5 50.5,-51.5c27.8468,0 50.5,23.10427 50.5,51.5z" fill="url(#color-1)"/><path d="M208.56965,143.13324c0,-23.26404 18.49304,-42.12328 41.30535,-42.12328c22.81231,0 41.30535,18.85924 41.30535,42.12328c0,23.26404 -18.49304,42.12328 -41.30535,42.12328c-22.81231,0 -41.30535,-18.85924 -41.30535,-42.12328z" fill="url(#color-2)"/><text transform="translate(215.21311,150.15887) scale(0.60843,0.62048)" font-size="40" xml:space="preserve" fill="#000000" fill-rule="nonzero" stroke="none" stroke-width="1" stroke-linecap="butt" stroke-linejoin="miter" stroke-miterlimit="10" stroke-dasharray="" stroke-dashoffset="0" font-family="Marker" font-weight="normal" text-anchor="start" style="mix-blend-mode: normal"><tspan x="0" dy="0">START</tspan></text></g></g></svg>