<svg version="1.1" xmlns="http://www.w3.org/2000/svg" xmlns:xlink="http://www.w3.org/1999/xlink" width="94" height="97.06522" viewBox="0,0,94,97.06522"><defs><linearGradient x1="205.375" y1="148.10033" x2="299.375" y2="148.10033" gradientUnits="userSpaceOnUse" id="color-1"><stop offset="0" stop-color="#006838"/><stop offset="1" stop-color="#8dc63f"/></linearGradient><radialGradient cx="252.375" cy="148.10033" r="38.44192" gradientUnits="userSpaceOnUse" id="color-2"><stop offset="0" stop-color="#009444"/><stop offset="1" stop-color="#d7df23"/></radialGradient></defs><g transform="translate(-205.375,-99.56678)"><g data-paper-data="{&quot;isPaintingLayer&quot;:true}" fill-rule="nonzero" stroke="none" stroke-width="1" stroke-linecap="butt" stroke-linejoin="miter" stroke-miterlimit="10" stroke-dasharray="" stroke-dashoffset="0" style="mix-blend-mode: normal"><path d="M299.375,148.09939c0,26.75959 -21.08318,48.53261 -47,48.53261c-25.91569,0 -47,-21.77302 -47,-48.53261c0,-26.76077 21.08318,-48.53261 47,-48.53261c25.91682,0 47,21.77302 47,48.53261z" fill="url(#color-1)"/><path d="M213.9324,148.10056c0,-21.92358 17.21134,-39.69617 38.4426,-39.69617c21.23126,0 38.4426,17.77258 38.4426,39.69617c0,21.92358 -17.21134,39.69617 -38.4426,39.69617c-21.23126,0 -38.4426,-17.77258 -38.4426,-39.69617z" fill="url(#color-2)"/><text transform="translate(220.11543,154.72137) scale(0.56627,0.58473)" font-size="40" xml:space="preserve" fill="#ffffff" fill-rule="nonzero" stroke="none" stroke-width="1" stroke-linecap="butt" stroke-linejoin="miter" stroke-miterlimit="10" stroke-dasharray="" stroke-dashoffset="0" font-family="Marker" font-weight="normal" text-anchor="start" style="mix-blend-mode: normal"><tspan x="0" dy="0">START</tspan></text></g></g></svg>